<svg xmlns="http://www.w3.org/2000/svg" width="420" height="180" viewBox="0 0 420 180" role="img" aria-labelledby="title desc">
  <title id="title">Linked image fixture</title>
  <desc id="desc">A local image nested inside a Markdown link.</desc>
  <rect width="420" height="180" rx="16" fill="#fff7ed"/>
  <rect x="18" y="18" width="384" height="144" rx="12" fill="#ffffff" stroke="#fb923c" stroke-width="2"/>
  <path d="M90 112c-18 0-32-14-32-32s14-32 32-32h52c18 0 32 14 32 32s-14 32-32 32h-20" fill="none" stroke="#ea580c" stroke-width="12" stroke-linecap="round"/>
  <path d="M278 68c18 0 32 14 32 32s-14 32-32 32h-52c-18 0-32-14-32-32s14-32 32-32h20" fill="none" stroke="#ea580c" stroke-width="12" stroke-linecap="round"/>
  <text x="58" y="152" fill="#9a3412" font-family="-apple-system, BlinkMacSystemFont, Segoe UI, sans-serif" font-size="22" font-weight="700">Image inside link</text>
</svg>
